HIERARCHY
ROOT Hips
{
	OFFSET	0.00	0.00	0.00
	CHANNELS 6 Xposition Yposition Zposition Zrotation Xrotation Yrotation
	JOINT Spine
	{
		OFFSET	 0.00	0.01	 0.00
		CHANNELS 3 Zrotation Xrotation Yrotation
		JOINT Spine1
		{
			OFFSET	 0.00	 2.45913012437421	 0.00
			CHANNELS 3 Zrotation Xrotation Yrotation
            JOINT Neck
            {
                OFFSET	 0.00	 2.48462964506057	 0.00
                CHANNELS 3 Zrotation Xrotation Yrotation
                JOINT Head
                {
                    OFFSET	 0.00	 0.927524780924562	 0.00
                    CHANNELS 3 Zrotation Xrotation Yrotation
                    End Site 
                    {
                        OFFSET	 0.00	 1.14999962169752	 0.00
                    }
                }
            }
			JOINT LeftShoulder
			{
				OFFSET	 0.00	 2.48462964506057	 0.00
				CHANNELS 3 Zrotation Xrotation Yrotation
				JOINT LeftUpArm
				{
					OFFSET	 0.00	 1.24881979654096	 0.00
					CHANNELS 3 Zrotation Xrotation Yrotation
					JOINT LeftForeArm
					{
						OFFSET	 0.00	2.59758046908119	 0.00
						CHANNELS 3 Zrotation Xrotation Yrotation
						JOINT LeftHand
						{
							OFFSET	 0.00	2.45542024364365	 0.00
							CHANNELS 3 Zrotation Xrotation Yrotation
							JOINT LeftHandThumb 
							{
								OFFSET	 0.00	0.00	 0.00
								CHANNELS 3 Zrotation Xrotation Yrotation
								End Site
								{
									OFFSET	 0.00	0.00	1.00000003353624
								}
							}
							JOINT L_Wrist_End 
							{
								OFFSET	 0.00	0.99999967115358	 0.00
								CHANNELS 3 Zrotation Xrotation Yrotation
								End Site 
								{
									OFFSET	 0.00	 0.00	 0.00
								}
							}
						}
					}
				}
			}
			JOINT RightShoulder
			{
				OFFSET	 0.00	 2.48462964506057	 0.00
				CHANNELS 3 Zrotation Xrotation Yrotation
				JOINT RightUpArm
				{
					OFFSET	 0.00	 1.24881979654096	 0.00
					CHANNELS 3 Zrotation Xrotation Yrotation
					JOINT RightForeArm
					{
						OFFSET	 0.00	2.59758046908119	 0.00
						CHANNELS 3 Zrotation Xrotation Yrotation
						JOINT RightHand
						{
							OFFSET	 0.00	2.45542024364365	 0.00
							CHANNELS 3 Zrotation Xrotation Yrotation
							JOINT RightHandThumb 
							{
								OFFSET	 0.00	0.00	 0.00
								CHANNELS 3 Zrotation Xrotation Yrotation
								End Site
								{
									OFFSET	 0.00	0.00	1.00000003353624
								}
							}
							JOINT R_Wrist_End 
							{
								OFFSET	 0.00	0.99999967115358	 0.00
								CHANNELS 3 Zrotation Xrotation Yrotation
								End Site 
								{
									OFFSET	 0.00	 0.00	 0.00
								}
							}
						}
					}
				}
			}
		}
	}
	JOINT LeftUpLeg
	{
		OFFSET	 1.2719394002717	 0.00	 0.00
		CHANNELS 3 Zrotation Xrotation Yrotation
		JOINT LeftLowLeg
		{
			OFFSET	 0.00	-4.3429100912261	 0.00
			CHANNELS 3 Zrotation Xrotation Yrotation
			JOINT LeftFoot
			{
				OFFSET	 0.00	-4.48767017425826	 0.00
				CHANNELS 3 Zrotation Xrotation Yrotation
				JOINT LeftToeBase
                {
                    OFFSET	 0.00	0.00	 1.51507020887566
                    CHANNELS 3 Zrotation Xrotation Yrotation
                    End Site 
                    {
                        OFFSET	 0.00	0.00	 0.75000010571191
                    }
                }
			}
		}
	}
	JOINT RightUpLeg
	{
		OFFSET	 -1.2719393604653	 0.00	 0.00
		CHANNELS 3 Zrotation Xrotation Yrotation
		JOINT RightLowLeg
		{
			OFFSET	 0.00	-4.3429100912261	 0.00
			CHANNELS 3 Zrotation Xrotation Yrotation
			JOINT RightFoot
			{
				OFFSET	 0.00	-4.48767017425826	 0.00
				CHANNELS 3 Zrotation Xrotation Yrotation
				JOINT RightToeBase
                {
                    OFFSET	 0.00	0.00	 1.51507020887566
                    CHANNELS 3 Zrotation Xrotation Yrotation
                    End Site 
                    {
                        OFFSET	 0.00	0.00	 0.749999965609858
                    }
                }   
			}
		}
	}
}
MOTION 
Frames:	15 
Frame Time: 0.02 
  -4.445369873046875 2.2321400451660156 9.182230224609375 -151.047 77.5143 1244.33 4.58653 10.8176 -0.411177 12.1845 6.43854 -3.33507 -26.9403 25.8918 364.452 111.519 -63.3711 -259.685 -107.9656 1.42422 3.4205 2.66645 31.7895 -28.7475 0.0 54.0958 0.0 40.0391 -8.61718 -4.88082 0.0 0.0 0.0 0.0 0.0 0.0 113.7607 5.68774 -18.8028 29.7515 32.6582 -44.7686 0.0 97.6546 0.0 -29.9877 -12.5896 -24.3459 0.0 0.0 0.0 0.0 0.0 0.0 10.3878 -22.5188 -6.32978 0.0 14.9905 0.0 -22.1978 6.06913 2.71722 0.0 -33.9911 0.0 7.87572 -20.2877 0.633961 0.0 20.4972 0.0 15.9871 7.78299 -0.980958 0.0 -40.032303 0.0 
  -4.477720031738281 2.212660064697266 9.198460083007813 -150.851 77.0471 1245.15 4.3499 10.724 -0.94578 13.551 5.68012 -3.82688 -30.5459 24.6685 367.658 111.856 -63.9677 -259.929 -106.5767 2.54452 3.11962 6.75031 33.3162 -32.6648 0.0 49.5867 0.0 39.5 -8.81901 -3.14665 0.0 0.0 0.0 0.0 0.0 0.0 113.6128 5.67717 -19.0176 29.3189 32.3813 -44.3273 0.0 97.3659 0.0 -29.224 -12.8511 -23.8876 0.0 0.0 0.0 0.0 0.0 0.0 10.479 -22.4771 -6.00461 0.0 13.5256 0.0 -22.2774 7.17636 2.82012 0.0 -34.450897 0.0 7.86199 -20.1526 -0.793828 0.0 19.5215 0.0 15.7928 8.31332 -0.961669 0.0 -39.9669 0.0 
  -4.501489868164063 2.1935000610351563 9.213800048828125 -150.929 76.4243 1246.25 4.34693 10.4333 -1.51569 14.4434 4.93708 -4.2894 -34.3225 23.1278 371.38 111.623 -64.4202 -260.568 -105.096 3.87647 2.86062 11.252 34.4897 -36.1739 0.0 44.3525 0.0 38.9514 -8.71104 -0.592029 0.0 0.0 0.0 0.0 0.0 0.0 113.5781 5.64291 -19.1248 29.0687 32.1156 -44.1793 0.0 97.1036 0.0 -29.2541 -13.3125 -23.818 0.0 0.0 0.0 0.0 0.0 0.0 10.3851 -22.5391 -5.46818 0.0 11.9661 0.0 -22.2872 8.11586 3.47558 0.0 -35.054 0.0 7.77189 -20.1861 -2.50877 0.0 18.5712 0.0 15.6044 8.85765 -0.782112 0.0 -40.241898 0.0 
  -4.52364013671875 2.1730799865722656 9.2285498046875 -151.057 75.8867 1247.33 4.35404 10.1806 -2.07682 15.1146 4.24006 -4.74556 -38.0179 21.5156 375.29 110.568 -64.522 -261.201 -103.721 5.3614 3.31152 16.5458 34.8419 -39.2828 0.0 38.8021 0.0 38.5996 -8.63347 4.08025 0.0 0.0 0.0 0.0 0.0 0.0 113.5838 5.64512 -19.333 28.9286 31.9934 -44.0042 0.0 96.7755 0.0 -29.2627 -13.7356 -23.7407 0.0 0.0 0.0 0.0 0.0 0.0 10.2003 -22.4891 -4.53198 0.0 10.4171 0.0 -22.2557 9.05639 4.01772 0.0 -35.2499 0.0 7.72904 -20.1617 -3.78625 0.0 17.6489 0.0 15.4907 9.252689 -0.885433 0.0 -40.239098 0.0 
  -4.542659912109375 2.1520399475097656 9.241409912109376 -151.857 75.2245 1248.9 4.18983 9.72507 -2.52129 15.7312 3.52476 -5.11801 -42.3441 19.418 379.791 109.833 -64.4945 -261.627 -102.5054 6.96966 3.85112 21.61 34.6902 -41.6357 0.0 33.2963 0.0 36.5312 -8.18045 7.96235 0.0 0.0 0.0 0.0 0.0 0.0 113.4996 5.85763 -19.2693 29.1036 31.5507 -44.0501 0.0 96.4783 0.0 -29.3148 -13.9036 -24.0152 0.0 0.0 0.0 0.0 0.0 0.0 9.81923 -22.5645 -3.50998 0.0 8.94229 0.0 -21.8377 9.965469 4.63883 0.0 -35.9417 0.0 7.63094 -20.3647 -4.42554 0.0 16.8836 0.0 15.4826 9.42544 -1.17292 0.0 -40.180298 0.0 
  -4.5572900390625 2.130570068359375 9.25333984375 -152.248 74.8514 1249.98 4.15205 9.51815 -2.95234 16.1236 2.87796 -5.45465 -46.6495 16.8782 384.533 108.952 -64.3303 -262.438 -101.7886 8.43151 4.47575 26.6148 34.3567 -43.6549 0.0 28.0381 0.0 33.8845 -7.33881 11.2377 0.0 0.0 0.0 0.0 0.0 0.0 113.6384 6.23746 -19.4808 28.9757 31.0284 -43.7238 0.0 96.3112 0.0 -29.5832 -13.857 -24.3389 0.0 0.0 0.0 0.0 0.0 0.0 9.37049 -22.3776 -2.55147 0.0 7.65163 0.0 -21.398 10.74769 5.18465 0.0 -36.2737 0.0 7.59497 -20.2659 -4.73222 0.0 16.1418 0.0 15.4591 9.52323 -1.66041 0.0 -40.0934 0.0 
  -4.568250122070313 2.1058200073242186 9.2635498046875 -152.436 74.643 1250.76 4.19888 9.38522 -3.25786 16.3938 2.25265 -5.64227 -50.8178 14.4794 388.904 108.09 -63.8571 -262.995 -101.4857 10.0662 4.32068 30.3854 34.2915 -44.9805 0.0 23.6224 0.0 31.8019 -6.84272 14.9417 0.0 0.0 0.0 0.0 0.0 0.0 113.884705 6.78489 -19.8522 28.7784 30.143 -42.96 0.0 96.2808 0.0 -29.5546 -13.8233 -24.4121 0.0 0.0 0.0 0.0 0.0 0.0 8.91308 -22.0553 -1.71769 0.0 6.54496 0.0 -21.1313 11.33902 5.70603 0.0 -36.5599 0.0 7.61001 -19.9423 -4.79703 0.0 15.3499 0.0 15.4797 9.57148 -2.2384 0.0 -39.9767 0.0 
  -4.574320068359375 2.0779299926757813 9.272310180664062 -152.288 74.6118 1251.18 4.33891 9.28063 -3.47215 16.5067 1.85523 -5.75537 -54.3635 12.1512 392.632 107.053 -63.2627 -263.181 -101.7449 10.7879 4.83205 34.9384 35.1133 -48.6481 0.0 19.8017 0.0 30.6604 -7.53002 19.2929 0.0 0.0 0.0 0.0 0.0 0.0 114.1215 7.50502 -20.24 28.6675 28.9196 -42.0 0.0 96.2635 0.0 -29.7794 -13.6237 -23.6967 0.0 0.0 0.0 0.0 0.0 0.0 8.46929 -21.6246 -1.18465 0.0 5.64975 0.0 -20.9663 11.67248 6.45263 0.0 -36.6515 0.0 7.64675 -19.4214 -4.96832 0.0 14.6018 0.0 15.4806 9.61629 -2.68353 0.0 -39.7658 0.0 
  -4.579089965820312 2.050489959716797 9.279920043945312 -152.584 74.3909 1251.86 4.43388 8.95691 -3.45864 16.8604 1.21302 -5.59226 -58.4797 10.6718 395.748 105.744 -62.312 -263.38 -101.1805 12.6354 -1.3163 31.316 38.4059 -46.026 0.0 19.0921 0.0 31.2283 -9.28265 24.0788 0.0 0.0 0.0 0.0 0.0 0.0 114.1272 8.36604 -21.2454 28.5327 27.6344 -40.3652 0.0 96.1578 0.0 -29.8059 -13.8322 -22.2756 0.0 0.0 0.0 0.0 0.0 0.0 8.00658 -21.4791 -0.88468 0.0 4.96904 0.0 -21.0887 11.84647 7.40939 0.0 -36.759003 0.0 7.6436 -19.1567 -4.91866 0.0 13.9496 0.0 15.517 9.63483 -3.08128 0.0 -39.6213 0.0 
  -4.582030029296875 2.0216799926757814 9.285800170898437 -152.691 74.1763 1252.3 4.71502 8.59017 -3.24635 16.8907 0.693137 -5.2039 -61.9979 9.43034 398.267 104.074 -61.4939 -264.127 -100.3423 14.0075 -6.20532 26.9411 41.4795 -45.1996 0.0 19.7668 0.0 33.1957 -11.3979 28.0127 0.0 0.0 0.0 0.0 0.0 0.0 114.0823 9.15832 -21.2804 29.2064 25.5574 -39.2986 0.0 96.1368 0.0 -29.9111 -14.0944 -22.0896 0.0 0.0 0.0 0.0 0.0 0.0 7.64672 -21.3752 -0.931177 0.0 4.41624 0.0 -21.1661 11.85779 8.43701 0.0 -36.9864 0.0 7.67686 -18.8614 -4.93848 0.0 13.2954 0.0 15.5 9.66518 -3.35147 0.0 -39.4404 0.0 
  -4.586199951171875 2.0 9.28677001953125 -153.014 73.995 1252.95 4.9529 8.35665 -2.81936 15.6349 0.872243 -4.74227 -62.0332 7.13731 400.317 101.669 -61.8139 -265.919 -102.0319 10.9491 3.03507 42.488 42.6448 -64.3548 0.0 16.2852 0.0 32.3636 -11.0337 27.5834 0.0 0.0 0.0 0.0 0.0 0.0 114.6499 8.88328 -21.3752 29.0572 24.4521 -37.8922 0.0 96.4017 0.0 -30.4238 -13.6709 -20.7504 0.0 0.0 0.0 0.0 0.0 0.0 7.28077 -21.5189 -0.961574 0.0 4.29942 0.0 -21.1697 11.78633 9.08196 0.0 -36.756 0.0 7.65035 -18.6886 -4.7004 0.0 12.8513 0.0 15.6342 9.46014 -3.70185 0.0 -39.3006 0.0 
  -4.5903799438476565 1.9745500183105469 9.28989013671875 -153.454 73.7825 1253.69 5.06244 8.02762 -2.34431 15.2032 0.58297 -4.17593 -63.7386 6.1568 401.929 99.7407 -61.3596 -267.655 -101.863 10.3183 1.27491 43.6038 46.8165 -67.8749 0.0 16.2047 0.0 32.7568 -11.214 28.669 0.0 0.0 0.0 0.0 0.0 0.0 114.6904 9.12627 -21.579 29.4362 22.7157 -36.5114 0.0 96.4347 0.0 -31.1651 -13.4636 -20.4678 0.0 0.0 0.0 0.0 0.0 0.0 6.96753 -21.7516 -0.915293 0.0 4.34531 0.0 -21.5799 11.73048 9.51107 0.0 -36.5739 0.0 7.63794 -18.525 -4.0766 0.0 12.3904 0.0 15.8657 9.25248 -4.33784 0.0 -39.186 0.0 
  -4.59614990234375 1.9462399291992187 9.292789916992188 -153.725 73.5338 1254.39 5.17038 7.59659 -1.88253 14.7852 0.363053 -3.63821 -65.0759 5.78197 402.885 98.3775 -60.8475 -268.734 -102.028 9.65502 1.07122 46.2027 49.7377 -71.6244 0.0 16.1861 0.0 31.3692 -11.2345 29.2465 0.0 0.0 0.0 0.0 0.0 0.0 114.729095 9.31131 -22.0005 29.6656 21.0852 -34.8079 0.0 96.5299 0.0 -31.3846 -13.693 -19.5518 0.0 0.0 0.0 0.0 0.0 0.0 6.73376 -22.16 -0.826972 0.0 4.64256 0.0 -21.6467 11.7849 9.59311 0.0 -36.3769 0.0 7.68974 -18.4027 -3.13037 0.0 11.9819 0.0 16.1349 8.88078 -5.34059 0.0 -38.850998 0.0 
  -4.599339904785157 1.9213499450683593 9.2977099609375 -153.917 73.45 1255.13 5.33836 7.49505 -1.4438 14.2177 -0.0590321 -3.08325 -65.9824 5.68659 403.471 97.6429 -60.3621 -269.311 -102.6102 9.00965 2.9651 51.4225 50.7663 -75.9713 0.0 15.9111 0.0 28.9668 -11.4067 29.7451 0.0 0.0 0.0 0.0 0.0 0.0 114.7428 9.19945 -22.3354 29.936 19.5745 -33.25 0.0 96.5226 0.0 -31.4035 -13.8667 -18.1678 0.0 0.0 0.0 0.0 0.0 0.0 6.46205 -22.5388 -0.959167 0.0 5.12616 0.0 -21.8148 11.89563 9.59551 0.0 -36.3797 0.0 7.61431 -18.0273 -2.93247 0.0 11.3638 0.0 16.1902 8.73802 -5.89699 0.0 -38.4795 0.0 
  -4.602799987792968 1.8961799621582032 9.305139770507813 -153.979 73.4451 1255.89 5.43123 7.37897 -1.15554 13.9784 -0.375995 -2.71679 -66.9832 5.72287 403.859 97.0488 -59.9403 -269.691 -102.9598 8.95185 2.16521 52.7623 52.8324 -75.0249 0.0 16.3111 0.0 27.0215 -12.0826 30.2496 0.0 0.0 0.0 0.0 0.0 0.0 114.6064 9.1736 -22.5979 30.1509 18.214 -31.8367 0.0 96.4252 0.0 -31.2348 -14.2636 -16.9873 0.0 0.0 0.0 0.0 0.0 0.0 6.19015 -22.8835 -1.28619 0.0 5.65583 0.0 -21.9855 12.12959 9.53498 0.0 -36.4986 0.0 7.49595 -17.4546 -2.97212 0.0 10.5381 0.0 16.3441 8.766541 -6.31828 0.0 -38.200798 0.0 
